<svg xmlns="http://www.w3.org/2000/svg" width="400.23" height="265.84" viewBox="0 0 400.23 265.84"><g id="Layer_2" data-name="Layer 2"><g id="Layer_5" data-name="Layer 5"><text transform="translate(59.63 141.66)" style="font-size:106.38645935058594px;font-family:FrontageCondensed-Bold;font-weight:700;letter-spacing:-0.13999024403257362em">S<tspan x="44.68" y="0" style="letter-spacing:-0.14598438385443327em">A</tspan><tspan x="84.68" y="0" style="letter-spacing:-0.1200021284704em">Y</tspan><tspan style="letter-spacing:-0.1199975387768151em"><tspan x="-59.63" y="103.96">HEL</tspan><tspan x="73.89" y="103.96" style="letter-spacing:-0.12998930171110948em">L</tspan><tspan x="112.18" y="103.96" style="letter-spacing:-0.1200021284704em">O!</tspan></tspan></text></g><g id="Layer_8" data-name="Layer 8"><g id="aukT8f"><path d="M239.12,170.41a12.68,12.68,0,0,1-2.37,7.07,3,3,0,0,1-5.18-.58c-.59-1.26-1.09-1-1.78-.45l-7.12,5.23c-3.26,2.39-6.79,3.75-10.64,1.93-2.37-1.12-3.4-2.58-2.91-5-.56,0-1.09.07-1.63.07-2.12,0-3-.7-3.87-2.86a1.14,1.14,0,0,0-.88-.54c-1.66,0-2.71-1.14-3.58-2.46a2.38,2.38,0,0,1,1-3.6,4.27,4.27,0,0,0,.62-.46,11.47,11.47,0,0,1-1.32-1.75,2.78,2.78,0,0,1,1.7-4.12,24.35,24.35,0,0,1,4-1c4.12-.7,8.27-1.21,12.35-2.06,2.76-.58,5.44-1.63,8.15-2.46a9.46,9.46,0,0,1,1-.18c-.43-3-.94-6.24,2.7-7,3.09-.63,4.48-.85,6.68,3.41,11.78-5.1,24-7.56,37-5.26-.31-2.88-.62-5.44-.84-8-.18-2.23-.26-4.46-.36-6.69s-.23-4.69-.25-7c-.05-5.17-.33-10.38.73-15.44a5.1,5.1,0,0,1,1.41-2.28c.62-.63,1.48-.13,1.94,1.06,1.44,3.68,2.8,7.39,4.3,11a40.46,40.46,0,0,0,2.42,4.61c.76,1.32,1.59,2.6,2.42,3.88a9.68,9.68,0,0,0,1,1.11,13.24,13.24,0,0,1,3.55-8.38,1.88,1.88,0,0,0,.21-1.32,46,46,0,0,1-1-6.08,11.76,11.76,0,0,1,5.28-10.19,19.36,19.36,0,0,1-1.3-8.18c.37-4.65,1.76-8.68,5.86-10.82.62-.32.72-.81.64-1.55a12.48,12.48,0,0,1,10.74-14,2.21,2.21,0,0,0,.41-.14c-.74-3.06.56-5.42,1.89-7.71,1.77-3,4.77-4,7.56-5.37l2.63-1.32a21.54,21.54,0,0,0-5.46-5.86,14.34,14.34,0,0,0-10.08-2.85,64.49,64.49,0,0,0-7.11.56,97.14,97.14,0,0,0-9.73,2.51c-2.54.76-5,1.88-7.51,2.66a16.56,16.56,0,0,1-3.55.3c.49-2,.84-3.67,2.24-4.7,1.67-1.23,3.27-2.59,5-3.66a22.51,22.51,0,0,1,8.7-3c2.27-.32,4.53-.71,6.82-.83a33.5,33.5,0,0,1,10.65,1.07,22.59,22.59,0,0,1,8.59,4.77,3.92,3.92,0,0,0,.69.29,19.55,19.55,0,0,0-1.1-2.27,73,73,0,0,0-11.31-12.27c-.83-.76-1.79-1.37-2.55-2.2a13.88,13.88,0,0,1-1.44-2.29c1-1.35,2.21-.87,3.24-.61,4.08,1.05,7.05,3.93,9.63,7.51a51.1,51.1,0,0,1,6.47,12.23c0,.11.12.21.37.19-.1-1.9-.21-3.8-.29-5.7a50.53,50.53,0,0,1,.71-10.79,46.4,46.4,0,0,1,3.3-11.47,35.21,35.21,0,0,1,7-10.7A30.64,30.64,0,0,1,342.77,3,26.19,26.19,0,0,1,353.5,0a5.37,5.37,0,0,1,1.63.47l.12.46c-.88.59-1.73,1.25-2.64,1.75-2.13,1.18-4.27,2.36-6.45,3.42a28.27,28.27,0,0,0-11.38,10.58,32,32,0,0,0-4.64,11.49c-.59,3.22-1.28,6.42-1.77,9.66a37.71,37.71,0,0,0-.31,6.58c.22-.71.44-1.42.65-2.14a44.22,44.22,0,0,1,8.78-17.14,34,34,0,0,1,6.18-5.6,10.7,10.7,0,0,1,3.95-1.71A41.78,41.78,0,0,1,354,17c1.15-.08,1.29.55.79,1.67-.59,1.31-1.72,1.69-2.71,2.35a104.17,104.17,0,0,0-8.85,6.07,29.16,29.16,0,0,0-7.59,9.16c-1.61,3.14-3.15,6.32-4.59,9.56a25,25,0,0,0-1.43,5.13c1-1.35,2-2.76,3.17-4,2.88-3.32,5.43-7.06,8.93-9.64a17.74,17.74,0,0,1,7.65-3.56c2.28-.35,4.58-.68,6.89-.86a10.63,10.63,0,0,1,6.9,2.12,1.75,1.75,0,0,1,.57,1.4c-.26.66-.76,1.52-1.31,1.65a37,37,0,0,1-5.37.84c-3.55.36-7.21-.08-10.59,1.45a46,46,0,0,0-5.12,2.65c-3.57,2.2-5.76,5.82-7.67,9.69a2.52,2.52,0,0,0-.13.47C340.83,55,343.71,61,345.19,68.44c.23-.07.51-.17.79-.24,2-.45,3.57.46,4.7,2.76a30.09,30.09,0,0,1,3.09,15.21c-.1,1.84-.36,3.67-.5,5.5a1.21,1.21,0,0,0,.38.83A11.93,11.93,0,0,1,358,100c.26,1.46.59,2.91.79,4.38a6.4,6.4,0,0,1,0,2.72,5.62,5.62,0,0,0,.2,3.67c.47,1.65.71,3.39,1.13,5.46.37-3.56.92-6.8,1-10.06.08-3.87-.25-7.77-.41-11.65a7,7,0,0,0-.1-.91c-.11-.61-.55-1.3.23-1.72a1.85,1.85,0,0,1,2.32.06,12.51,12.51,0,0,1,4.43,7.84,84.06,84.06,0,0,1,1.52,10.19c.32,5.31.31,10.64.33,16,0,3.55-.1,7.11-.29,10.65-.11,2.27-.45,4.52-.68,6.78a5.08,5.08,0,0,0,0,.66c5.14-5.49,7.93-12.38,10.39-19.18a29.56,29.56,0,0,1-2.13-2.84c-.83-1.46-.43-2.67,1-3.29a15.18,15.18,0,0,1,1.57-.53c-1.68-1.93-3.78-3.5-3.69-6.71s2.08-4.77,4.18-6.1a35.53,35.53,0,0,1-1.47-5.25c-.44-3.41.73-6.95,4.38-7.34a3.14,3.14,0,0,1,3.4,1.91c.7,1.5,1.27,3.08,1.84,4.65a20,20,0,0,1,.56,2.13c.92-1.87,1.8-3.9,2.87-5.78A5.37,5.37,0,0,1,395.61,93a2.48,2.48,0,0,1,2.51,2,13.21,13.21,0,0,1-1.61,10.41c-.65,1.14-1.36,2.27-1.08,3.72a1.26,1.26,0,0,0,.89.77c1.71.09,2,.29,2.58,2a1.56,1.56,0,0,0,.51.61c.27.23.83.44.82.61a3.17,3.17,0,0,1-.49,1.44c-.07.11-.59-.13-.89-.21A7.47,7.47,0,0,1,396,119a7.06,7.06,0,0,0-.69.76,27.24,27.24,0,0,1-1.83,2.28,1.56,1.56,0,0,0-.5,1.64c.5,2.57-1,4.24-3.16,4-.25,1-.46,2-.76,2.93-1,3.22-1.87,6.51-3.07,9.63a81.09,81.09,0,0,1-4.22,9.23,63.06,63.06,0,0,1-8.21,11.66,41.82,41.82,0,0,1-5.57,5.34,8.09,8.09,0,0,1-2.61,1.1,1.74,1.74,0,0,0-1.2,1.48c-.63,2.77-1.22,5.54-2,8.27a104.78,104.78,0,0,1-3,10.09,123.63,123.63,0,0,1-5.66,13.13c-2.31,4.49-5.11,8.66-7.74,13a5.44,5.44,0,0,1,.27,1.46c-.29,4.61-.63,9.22-.95,13.83-.06.83-.09,1.67-.09,2.5,0,1.48.76,2.14,2.06,1.93a28.56,28.56,0,0,1,13.13.45,25.24,25.24,0,0,1,13,8.58,22.14,22.14,0,0,1,2.39,4.43c.57,1.31-.34,4.75-1.36,5.6a1.18,1.18,0,0,1-.73.21c-3.83-.31-7.66-.65-11.5-.94-3.53-.26-7.07-.48-10.6-.69-3.72-.21-7.45-.34-11.16-.6q-7.17-.49-14.34-1.15a6.76,6.76,0,0,1-2.82-.86c-1.9-1.12-3.85-.73-5.78-.64-3.5.16-7,.45-10.5.65-3,.17-6,.28-9,.4-3.89.15-7.79.24-11.67.43-2.81.14-5.6.42-8.41.58q-3.15.19-6.3.21c-.35,0-.73-.4-1.06-.67a4.68,4.68,0,0,1-1.33-4.65,17.42,17.42,0,0,1,4.56-7,20.6,20.6,0,0,1,9.67-5.71c4.36-1.18,8.74-1.47,13.13.23.9.34,1.84.55,2.85.86.07-2.45.16-4.9.21-7.35.08-3.83,0-7.68.25-11.49a3.46,3.46,0,0,0-1.26-2.95,76.88,76.88,0,0,1-6.31-7.49,89.29,89.29,0,0,1-5.66-9.37,71.3,71.3,0,0,1-3.6-8.19c-1.43-3.78-2.7-7.64-4-11.48-.56-1.7-.93-3.47-1.45-5.18a28.43,28.43,0,0,0-1.32-3.62c-.12-.26-.81-.35-1.22-.3-2.87.38-5.74.87-8.62,1.24-3.43.44-6.87.73-10.3,1.2-3.62.5-7.23,1.15-10.85,1.67C243.15,170.05,241.16,170.2,239.12,170.41ZM358,167.81l.13-.56c.35-.21.72-.4,1.06-.64q2.82-1.92,5.62-3.86a31.76,31.76,0,0,0,3.82-2.66,53.81,53.81,0,0,0,9.58-11.86A80.13,80.13,0,0,0,385.48,133c.61-1.79,1.14-3.62,1.69-5.4l-5.63-1.88c-1.35,4.15-2.35,8.39-4.07,12.24a36.27,36.27,0,0,1-8.83,12.46,12.38,12.38,0,0,1-9.51,3.1c-.38,0-.76-.44-1.14-.67.22-.4.35-.94.67-1.17,1.46-1,3-1.91,4.46-2.95.59-.43,1.39-1.08,1.46-1.72.56-5.71,1.11-11.43,1.41-17.17.25-4.84.26-9.72.2-14.58-.05-3.42-.31-6.86-.63-10.28-.18-1.85-.7-3.67-1.06-5.5a1,1,0,0,0-.34.73c-.13,3.33,0,6.69-.41,10-.6,5.28-1.37,10.52-3.4,15.44a58.35,58.35,0,0,1-6.75,11.66,83.07,83.07,0,0,1-10.74,11.86c-3.92,3.7-7.7,7.56-11.56,11.34a95.55,95.55,0,0,0-10.83,12.43A46.86,46.86,0,0,0,312.6,191a36,36,0,0,0-.26,14.52,20.64,20.64,0,0,0,6.14,11.6c4.26,3.92,9.76,3.35,14,1.41a24.17,24.17,0,0,0,6.73-4.93A64.53,64.53,0,0,0,349,200.5a83,83,0,0,0,7.43-16c1.34-3.94,2.5-8,3.7-12,.32-1,.52-2.16.7-2.92Zm-8.2-86.43a29.17,29.17,0,0,0-1.82-6.08c-.84-2-1.94-3.46-3.85-4a4.31,4.31,0,0,1-2.63-2.66,24,24,0,0,0-3.55-5.89c-2.22-2.7-4.91-3.28-7.74-1.61a1.28,1.28,0,0,1-.62.19c-1.68-.09-3.36-.27-5.05-.29a10.29,10.29,0,0,0-6.18,1.53,12.48,12.48,0,0,0-5.14,7.68A3.66,3.66,0,0,1,310.59,73a6.94,6.94,0,0,0-2,1.14,17.32,17.32,0,0,0-5.7,9.17,11.12,11.12,0,0,1-2.76,5.32,15.07,15.07,0,0,0-2.77,3.84,9.16,9.16,0,0,0-1.05,6.86c.76,2.73.78,5.2-1.32,7.44a10.87,10.87,0,0,0-2.65,7.72c0,1.77.15,3.54,0,5.29a5.11,5.11,0,0,1-.93,3,9.44,9.44,0,0,0-2.17,5.42c-.06,1.82-.11,3.64,0,5.46a2,2,0,0,0,.71,1.32,61.09,61.09,0,0,0,5.48,3.69c6.19,3.48,11.52,8.34,16.82,13.2,2.36,2.16,4.39,4.76,6.68,7,1.11,1.1,1.88,3,3.78,2.66,1.38-.22,2.92.12,4.08-.92s2-2.16,3-3.18c3.41-3.41,6.86-6.79,10.29-10.18,4.32-4.26,8.57-8.64,11.89-13.91,1.44-2.29,3.56-4.05,3.64-7.55.1-3.86.69-7.73.66-11.64a8.64,8.64,0,0,0-1.41-5,4.31,4.31,0,0,1-.73-3.58,35.51,35.51,0,0,0,.43-4.12c.07-2.06-.23-4-1.88-5.4a27.32,27.32,0,0,1-1.85-2.14A7.27,7.27,0,0,1,349,87.23C349.3,85.3,349.49,83.33,349.76,81.38ZM236.85,156.77l2.36,11,1.08-.56c1.15-.62,2.28-1.29,3.46-1.86,3.77-1.84,7.88-2.13,11.89-2.79,3.26-.53,6.59-.57,9.89-.84a56.19,56.19,0,0,1,15.47.75,35,35,0,0,1,3.4,1.05l0,.47-4.4,1c.75,2.55,1.45,5.05,2.24,7.52a134.4,134.4,0,0,0,6.17,15.64,82.35,82.35,0,0,0,5.27,9.81,56.93,56.93,0,0,0,8.1,10.12,67.36,67.36,0,0,0,9.58,7.4,18.11,18.11,0,0,0,2,1,29.52,29.52,0,0,1-4.55-18.17c.17-2.6.73-5.15,1-7.73a34.19,34.19,0,0,1,2.82-9.56,48.9,48.9,0,0,1,8-13.3,1.14,1.14,0,0,0,.09-1.68c-.65-.76-1.15-1.69-1.82-2.41a155.57,155.57,0,0,0-13.2-12.13c-5.16-4.38-10.94-7.54-16.52-11.11a21.69,21.69,0,0,1-7-6.94c-1.25-2-2.53-4.05-3.67-6.17a32.51,32.51,0,0,1-1.9-4.49c-.8-2.22-1.48-4.49-2.21-6.73a5.9,5.9,0,0,0-.39,2.05c0,4.64-.14,9.29.15,13.92.33,5.35,1,10.67,1.64,16a1.08,1.08,0,0,0,.66.69c1.93.54,3.9.93,5.81,1.54a26.55,26.55,0,0,1,3.33,1.58l-.07.42a8.86,8.86,0,0,1-1.94.42c-3.25,0-6.5-.15-9.75-.25-4.09-.14-8.19-.46-12.28-.39a65.36,65.36,0,0,0-11.19,1C245.81,154,241.43,155.48,236.85,156.77Zm104.5,76q0-7.09.1-14.8c-5.55,5-11.48,7.73-18.51,6.3q.06,10.22.12,19.89c15.66.66,31.29,3.32,47.07,3.77a36.89,36.89,0,0,0-4.37-3.89,32.36,32.36,0,0,0-10.88-5c-2.59-.63-5.19-1.21-7.78-1.79a13.85,13.85,0,0,0-3.92-.78c-2,.16-4,.88-6,1.2a5.29,5.29,0,0,1-3.85-.41c1.55-2,3.83-1.83,5.74-2.86-2.1-.81-4.33-.69-6.15-2l.08-.51Zm-21.72-9.16c-5.79-1.35-11.05-4.58-16.35-8.07.16,2.92.33,5.66.43,8.4s.13,5.43.18,8.14c0,.81.22,1.05,1.05,1.14,2.37.25,4.72.72,7.07,1.19.32.06.58.58.87.89a8,8,0,0,1-.93.83,1.77,1.77,0,0,1-.81.12l-6.47.06c.69.35,1.11.6,1.55.78.93.39,1.88.71,2.79,1.14a1.1,1.1,0,0,1,.5.8c0,.26-.39.7-.59.68-1.47-.15-2.94-.36-4.4-.64-.5-.1-1-.52-1.46-.63-2.1-.45-4.21-.78-6.31-1.27-2.87-.66-5.64-1.73-8.68-1.4-5.61.6-10.09,3.26-13.86,8.1a204.58,204.58,0,0,1,44.28.66C318.87,237.53,319.25,230.59,319.63,223.63ZM201.86,165.47l.06.53a12.17,12.17,0,0,0,8.47,2.63c1.93-.07,3.84-.64,5.77-.78a10,10,0,0,1,3.72.42c1.4.45,2,2.22,1.55,3.76-.7,2.66-2.55,3.89-4.69,4.78-1.73.71-3.48,1.38-5.22,2.07.7,2.13,2.25,2.44,3.64,2.58,3.23.32,5.76-1.44,8.18-3.52,2.11-1.82,4-4.17,7-4.38-.21-.33-.54-.63-.57-.95a5.72,5.72,0,0,1,.14-2.07c.05-.21.87-.42,1.1-.24a5.18,5.18,0,0,1,1.27,1.61c.55,1.08.92,2.27,1.49,3.33.35.65.87.66,1.12-.17a19.13,19.13,0,0,0,1-3.42c.57-5.26-.77-10.26-2.32-15.18-.69-2.19-1.71-2.48-3.59-1.52.6,3.15.42,6.1-1.28,8.66l-.52,0-1.69-4.06c-3.28,2.77-7.14,3.67-11.05,4.26-3.25.49-6.56.57-9.84.91C204.31,164.87,203.09,165.22,201.86,165.47ZM393,119.53c-.67-.64-1.23-1.49-2-1.78a4.55,4.55,0,0,1-2.86-3.25c-.36-1.44.8-2.27,1.62-3.15a15.84,15.84,0,0,0,1.68-2,11.57,11.57,0,0,0,.54-1.78c1-2.53,2.11-5,3-7.58a13.92,13.92,0,0,0,.43-3l-.36-.18a4.25,4.25,0,0,0-1.08.83,33,33,0,0,0-2.81,4.29,20.07,20.07,0,0,0-2.11,5.63c-.3,1.91-.58,3.56-2.06,4.39.05.92.14,1.69.13,2.45,0,.28-.22.72-.42.78s-.61-.16-.76-.4c-.45-.71-.82-1.49-1.25-2.29-1.45,0-1.86-.16-2.6-1.32a1.65,1.65,0,0,1-.12-1.28c.11-.23.74-.31,1.07-.2a2.82,2.82,0,0,0,3.16-.48,2.46,2.46,0,0,0,.68-1.67c0-.33-.86-.75-1.36-.83A7.8,7.8,0,0,0,380,108c-2.42,1.59-2.69,4-.82,6.41.9,1.17,2.31,1.91,2.59,3.65,0,.17.47.28.73.39,1.11.48,2.25.91,3.35,1.43.24.12.39.51.58.77-.3.18-.65.59-.9.52a20.65,20.65,0,0,1-3.1-1.15,1.92,1.92,0,0,0-2.84,1.24,24.19,24.19,0,0,0,9.1,3.54c.57.13,1.26-.44,1.89-.69a13.17,13.17,0,0,0-.81-1.38c-.48-.63-.54-1.06.21-1.45C391,120.74,391.91,120.14,393,119.53Zm-6.06-15.17a4.21,4.21,0,0,0-.14-.91c-.73-2-1.56-4.06-2.18-6.15-.24-.8-.54-1.52-1.21-1.42a2.63,2.63,0,0,0-1.67,1.2c-1.36,2.46-.35,5.17-.44,7.54ZM215.18,170.72v-.21a28.37,28.37,0,0,0-3.25,1.26c-2.15,1.13-4.25,2.37-6.28,3.52,1.2,1,2.41.05,3.59-.69C211.25,173.35,213.2,172,215.18,170.72ZM390.85,114c1.11.34,2.58-1.36,3-3.46C392.62,110.53,391.46,111.86,390.85,114ZM206.41,171.14c-1.22-.38-2.12-.68-3-.94a1,1,0,0,0-.64,0,2.69,2.69,0,0,0-.55.47,2.26,2.26,0,0,0,.48.45A3.9,3.9,0,0,0,206.41,171.14Zm9.31,3c1.38-.49,2.57-1.06,2.92-2.76C217.92,171.13,216.82,172.18,215.72,174.1Zm180.22-62.25c-.8,1.62-1.64,3.32-2.39,4.82C395.11,115.74,396.43,113,395.94,111.85Z" style="fill:#00b982"/><path d="M314.43,129.94c-3.77-.26-6.12-3.15-7.44-6.77-1.17-3.18-.79-6.4-.24-9.62a14.41,14.41,0,0,1,2.89-7.1A10.17,10.17,0,0,1,324,105.22c.39.33.53.38,1,.09,3.13-2,6.46-3,10.15-2.27a8.69,8.69,0,0,1,6.63,5.46,13.75,13.75,0,0,1,1.18,6.41,52.91,52.91,0,0,1-.62,6.2,12.47,12.47,0,0,1-4.61,7.54,33.29,33.29,0,0,1-3.17,1.91,5.17,5.17,0,0,1-3.36,5.61,18.62,18.62,0,0,1-13.27-.73,5.23,5.23,0,0,1-2.89-3.7C314.89,131.19,314.67,130.66,314.43,129.94Zm9.45-20.54.28-.35a11.84,11.84,0,0,0-2.1-2.33,11,11,0,0,0-7.26-1.39c-1.47.15-2,1.5-3,2.26A7.42,7.42,0,0,0,309.2,112a25.59,25.59,0,0,0-.78,7c.14,3.33,2,6.92,4.95,8,2.4.85,6.42-1,7.89-3.11-2.91-.24-5.17-4.75-5.07-8.68C316.27,111.81,317.94,108.9,323.88,109.4Zm2.18-1.91c.33,2.08.73,3.88.9,5.71.3,3.28-.73,6.23-1.9,9.13-.08.19-.16.54-.08.64a19.55,19.55,0,0,0,2.89,3c3.1,2.21,7.72,1.34,10.33-2.8a4.35,4.35,0,0,1-4.13-2.27,17,17,0,0,1-1.75-5,5.78,5.78,0,0,1,1.41-4.56,5.28,5.28,0,0,1,5.3-1.87C337,105.63,330,104.13,326.06,107.49Zm5.8,24.12c-4.88-2.32-9.63-3.28-14.44-.82a3.43,3.43,0,0,0,2.54,2.13,16.71,16.71,0,0,0,8.31.64C329.51,133.32,330.93,133.16,331.86,131.61Z" style="fill:#00b982"/><path d="M301.73,134.33c1.92-2.09,3.94-4,6.62-4.9l.26.26c-.49.89-1,1.77-1.62,2.9,1.09.33,2.07.58,3,.93,2.14.77,4.25,1.7,6.42,2.37,4.17,1.29,8.39,2.2,12.73,1.72a23.52,23.52,0,0,0,8.63-3.11c.47-.26,1-.49,1.53-.79l-1.73-1.66c1.87-.83,6.38,1,8.2,3.21-1.08,1-2.2.14-3.19-.15a1.63,1.63,0,0,0-2,.55c-1.84,2-3.82,3.8-5.82,5.59-1.47,1.32-3,2.54-4.6,3.72-1.82,1.38-4,1.4-6,1.2a14.72,14.72,0,0,1-8-3.28c-1.78-1.47-3.36-3.23-5.11-4.74s-3.41-2.71-5.17-4c-.36-.25-1-.09-1.49,0-.77.16-1.52.44-2.27.67Zm29.07,6.34a36.82,36.82,0,0,1-14.23-1.1C321.13,143,326.63,144.2,330.8,140.67Z" style="fill:#00b982"/><path d="M302.21,91.23a8.74,8.74,0,0,1-.43,1.28c-.58,1.12-1.25,2.18-1.8,3.31-.78,1.62-.14,4.13,1,5.46a3.4,3.4,0,0,0,4.08,1.08c2.07-.65,4.41-.59,6.07-2.29,1.89-1.95,3.77-4,4.67-6.79.49-1.51,1.23-2.07,3-2,.52,2.47-.51,4.6-1.56,6.44a17.75,17.75,0,0,1-4.54,5.47c-2,1.45-4.13,3.13-6.74,2.76s-5.31-1.14-7.13-3.81c-1.37-2-1.37-6.08.09-8,.47-.62.79-1.4,1.3-2a11.56,11.56,0,0,1,1.68-1.33Z" style="fill:#00b982"/><path d="M311.76,77c-.59,1-1.22,2-1.77,3a6.91,6.91,0,0,0-1.23,2.74,3.48,3.48,0,0,0,3.88,3.85c3.55-.07,5.75-2.27,7.41-5.48a8.91,8.91,0,0,0,1.14-5c1-.48,1.11.5,1.1,1a17,17,0,0,1-.45,4.55c-.82,2.53-2,5-4.14,6.37s-4.82,2.68-7.51,1a9.54,9.54,0,0,1-4.07-6.37c-.37-1.8,1.9-5.4,3.69-6a5.94,5.94,0,0,1,1.69-.05Z" style="fill:#00b982"/><path d="M344.84,111.83c.49,7.75,3.43,8.33,9,9.15-.7-3.66-1.38-7.19-2.05-10.72,1.9-.34,3,.55,3.37,2.72a23.39,23.39,0,0,1-.37,8.76,3.35,3.35,0,0,1-2.49,2.11c-2.81.13-5.59-.3-7.6-3.08-1.42-2-1.39-4-.92-6.24a12.06,12.06,0,0,1,.42-1.7A5.25,5.25,0,0,1,344.84,111.83Z" style="fill:#00b982"/><path d="M337.78,90.53a8.66,8.66,0,0,1,.54,2.16,11.06,11.06,0,0,1-3.58,8c-1.08,1-3,1.2-4.59,1.17a37.42,37.42,0,0,1-6.58-1.06,4.07,4.07,0,0,1-3-3.74c0-1.49.14-3,.22-4.48l.43-.1a4.26,4.26,0,0,1,.4.87c.16.64.26,1.3.37,1.95a2.65,2.65,0,0,0,2,2.41,28.17,28.17,0,0,0,7.83.94,2.67,2.67,0,0,0,2.35-1.31c1.05-1.61,2.24-3.16,2.43-5.32a4.38,4.38,0,0,1,.74-1.48Z" style="fill:#00b982"/><path d="M294.29,123.21c-.36,1.23-.62,2.07-.85,2.92a16.4,16.4,0,0,0-.84,3.59,3,3,0,0,0,1.09,2.13,1.81,1.81,0,0,0,2.16-.15c1-.77,2.39-1,3.56-1.59a2.7,2.7,0,0,0,1-1.16c.4-.75.66-1.6,1-2.39.56-1.21.05-2.25-.41-3.33-.26-.59-.91-1.23-.11-1.84a1.43,1.43,0,0,1,2.07.74,7.31,7.31,0,0,1,.42,5.52c-.32,1.19-.78,2.33-1.2,3.48a3.84,3.84,0,0,1-3.09,2.43,12.27,12.27,0,0,1-3.77.69,5.74,5.74,0,0,1-4.57-3.13,4.23,4.23,0,0,1-.43-2.35c.26-1.89.42-3.92,2.16-5A8.43,8.43,0,0,1,294.29,123.21Z" style="fill:#00b982"/><path d="M325.15,77a28.06,28.06,0,0,0-.09,5,5.37,5.37,0,0,0,3,4,7.91,7.91,0,0,0,4.83.47,17.41,17.41,0,0,1,3,0c.32-2.42,1.29-4.71.53-7.31a6.26,6.26,0,0,1,0-2.69,1.28,1.28,0,0,1,1.09-.68,1.53,1.53,0,0,1,1.11.82c.84,3.19,1,6.28-1.26,8.87a.23.23,0,0,0-.07.1c-.82,3.4-3.29,3.82-5.9,3.85-4.38,0-6.48-2.17-7.75-6.44a3.58,3.58,0,0,1,.11-1.58c.21-1.19.45-2.38.73-3.55a6.39,6.39,0,0,1,.57-1.14Z" style="fill:#00b982"/><path d="M319.91,64.92a11.08,11.08,0,0,1-.89,2.57c-.9,1.3-.33,2.61-.14,3.91a1.05,1.05,0,0,0,.8.66A7.86,7.86,0,0,0,325,69a6.54,6.54,0,0,0,1.29-4.48,2.84,2.84,0,0,1,.26-.91l.39-.13a10.37,10.37,0,0,1,.84,2.31,7.48,7.48,0,0,1-1.69,6,7.11,7.11,0,0,1-6.5,2.34c-2-.35-3.68-4-3.14-6.35S317.47,65,319.91,64.92Z" style="fill:#00b982"/><path d="M349.21,99.22c-.5-.88-.92-1.7-1.42-2.45s-.8-1.37-.06-1.79,1.64-.58,2,.51a13.14,13.14,0,0,1,.78,3.7,3.11,3.11,0,0,1-.83,2.27,3.93,3.93,0,0,1-4.86.25,12.26,12.26,0,0,1-4.49-5.52,7,7,0,0,1-.11-4.45c0-.21.35-.34.54-.5a1.74,1.74,0,0,1,.22.61c-.21,3,1.76,4.4,3.51,5.92A5.17,5.17,0,0,0,349.21,99.22Z" style="fill:#00b982"/><path d="M345.9,84.15a34.24,34.24,0,0,0,.07-3.9,23.92,23.92,0,0,0-.73-3.52c-.14-.6-.21-1,.47-1.33s.9,0,1.16.67a11.42,11.42,0,0,1,0,9c-.44,1.14-2.92,1.55-4,.9-1.55-.94-1.94-2.56-2.16-4.2a28.41,28.41,0,0,1,0-4.23,1.58,1.58,0,0,1,.24-.83,5.36,5.36,0,0,1,.79-.79,3.58,3.58,0,0,1,.22,1.09c-.18,1.94.69,3.63,1.16,5.4.11.4.62.73,1,1A14.84,14.84,0,0,0,345.9,84.15Z" style="fill:#00b982"/><path d="M293.18,115.83a7.66,7.66,0,0,1,1.15-5,3.08,3.08,0,0,1,1.83-1.21c1-.25,1.27.26.88,1.3s-.94,2-1.27,3a21.19,21.19,0,0,0-.43,2.57c-.19,1.1.33,1.28,1.19,1.55,1.8.55,3-.31,4.27-1.47a7.69,7.69,0,0,1,1.49-1.07.74.74,0,0,1,.74.06,1.42,1.42,0,0,1,.14.89c-.22,2-2.42,3.87-4.14,3.63a22.14,22.14,0,0,1-4-.62c-1.11-.37-1.53-1.64-1.79-2.85C293.21,116.36,293.21,116.09,293.18,115.83Z" style="fill:#00b982"/><path d="M352.56,128.51c.17,3.23-.92,4.6-3.78,5.24s-5.5-1-6.4-4.26c-.42-1.47.55-2.58,1.26-3.63.2-.32.83-.27,1.46-.45a7.88,7.88,0,0,1-.28.93,2.89,2.89,0,0,0,2.75,4.23,10.11,10.11,0,0,0,2.84-.95C351.09,129.34,351.72,129,352.56,128.51Z" style="fill:#00b982"/><path d="M340.66,71.68a17.72,17.72,0,0,1-3.14,1.45,9.32,9.32,0,0,1-5.84-.92c-1.74-.74-2.67-3.65-2.25-6.41.09-.61.23-1.2.35-1.8l.44,0c.11,1,.14,2,.34,3,.56,2.88,1.16,3.52,3.85,3.81,1.84.21,3.71.17,5.56.26a2.05,2.05,0,0,1,.53.13Z" style="fill:#00b982"/><path d="M322.36,149.55c2.72,0,5.28.15,7.6,1.88.74.56,1.13,1.21.6,2s-1.16.25-1.68-.13a10.85,10.85,0,0,0-8.18-1.89,14.31,14.31,0,0,0-1.92.7,2.37,2.37,0,0,1-.79,0c.13-.23.21-.57.39-.66C319.7,150.79,321,150.17,322.36,149.55Z" style="fill:#00b982"/><path d="M358,167.81l2.84,1.81c-.18.76-.38,1.87-.7,2.92-1.2,4-2.36,8-3.7,12a83,83,0,0,1-7.43,16,64.53,64.53,0,0,1-9.74,13.11,24.17,24.17,0,0,1-6.73,4.93c-4.26,1.94-9.76,2.51-14-1.41a20.64,20.64,0,0,1-6.14-11.6A36,36,0,0,1,312.6,191a46.86,46.86,0,0,1,7.87-18.07,95.55,95.55,0,0,1,10.83-12.43c3.86-3.78,7.64-7.64,11.56-11.34a83.07,83.07,0,0,0,10.74-11.86,58.35,58.35,0,0,0,6.75-11.66c2-4.92,2.8-10.16,3.4-15.44.37-3.29.28-6.65.41-10a1,1,0,0,1,.34-.73c.36,1.83.88,3.65,1.06,5.5.32,3.42.58,6.86.63,10.28.06,4.86.05,9.74-.2,14.58-.3,5.74-.85,11.46-1.41,17.17-.07.64-.87,1.29-1.46,1.72-1.45,1-3,1.93-4.46,2.95-.32.23-.45.77-.67,1.17.38.23.76.65,1.14.67a12.38,12.38,0,0,0,9.51-3.1A36.27,36.27,0,0,0,377.47,138c1.72-3.85,2.72-8.09,4.07-12.24l5.63,1.88c-.55,1.78-1.08,3.61-1.69,5.4a80.13,80.13,0,0,1-7.31,15.21,53.81,53.81,0,0,1-9.58,11.86,31.76,31.76,0,0,1-3.82,2.66q-2.81,1.94-5.62,3.86c-.34.24-.71.43-1.06.64Z" style="fill:#f2f0e7"/><path d="M349.76,81.38c-.27,2-.46,3.92-.81,5.85a7.27,7.27,0,0,0,1.87,6.69,27.32,27.32,0,0,0,1.85,2.14c1.65,1.41,1.95,3.34,1.88,5.4a35.51,35.51,0,0,1-.43,4.12,4.31,4.31,0,0,0,.73,3.58,8.64,8.64,0,0,1,1.41,5c0,3.91-.56,7.78-.66,11.64-.08,3.5-2.2,5.26-3.64,7.55-3.32,5.27-7.57,9.65-11.89,13.91-3.43,3.39-6.88,6.77-10.29,10.18-1,1-1.93,2.22-3,3.18s-2.7.7-4.08.92c-1.9.32-2.67-1.56-3.78-2.66-2.29-2.27-4.32-4.87-6.68-7-5.3-4.86-10.63-9.72-16.82-13.2a61.09,61.09,0,0,1-5.48-3.69,2,2,0,0,1-.71-1.32c-.06-1.82,0-3.64,0-5.46a9.44,9.44,0,0,1,2.17-5.42,5.11,5.11,0,0,0,.93-3c.12-1.75,0-3.52,0-5.29a10.87,10.87,0,0,1,2.65-7.72c2.1-2.24,2.08-4.71,1.32-7.44a9.16,9.16,0,0,1,1.05-6.86,15.07,15.07,0,0,1,2.77-3.84,11.12,11.12,0,0,0,2.76-5.32,17.32,17.32,0,0,1,5.7-9.17,6.94,6.94,0,0,1,2-1.14,3.66,3.66,0,0,0,2.59-2.79,12.48,12.48,0,0,1,5.14-7.68A10.29,10.29,0,0,1,324.5,61c1.69,0,3.37.2,5.05.29a1.28,1.28,0,0,0,.62-.19c2.83-1.67,5.52-1.09,7.74,1.61a24,24,0,0,1,3.55,5.89,4.31,4.31,0,0,0,2.63,2.66c1.91.57,3,2.06,3.85,4A29.17,29.17,0,0,1,349.76,81.38Zm-35.33,48.56c.24.72.46,1.25.6,1.8a5.23,5.23,0,0,0,2.89,3.7,18.62,18.62,0,0,0,13.27.73,5.17,5.17,0,0,0,3.36-5.61,33.29,33.29,0,0,0,3.17-1.91,12.47,12.47,0,0,0,4.61-7.54,52.91,52.91,0,0,0,.62-6.2,13.75,13.75,0,0,0-1.18-6.41,8.69,8.69,0,0,0-6.63-5.46c-3.69-.76-7,.3-10.15,2.27-.47.29-.61.24-1-.09a10.17,10.17,0,0,0-14.35,1.23,14.41,14.41,0,0,0-2.89,7.1c-.55,3.22-.93,6.44.24,9.62C308.31,126.79,310.66,129.68,314.43,129.94Zm-12.7,4.39.3.56c.75-.23,1.5-.51,2.27-.67.49-.11,1.13-.27,1.49,0,1.76,1.24,3.51,2.53,5.17,4s3.33,3.27,5.11,4.74a14.72,14.72,0,0,0,8,3.28c2.08.2,4.22.18,6-1.2,1.57-1.18,3.13-2.4,4.6-3.72,2-1.79,4-3.61,5.82-5.59a1.63,1.63,0,0,1,2-.55c1,.29,2.11,1.12,3.19.15-1.82-2.25-6.33-4-8.2-3.21l1.73,1.66c-.57.3-1.06.53-1.53.79a23.52,23.52,0,0,1-8.63,3.11c-4.34.48-8.56-.43-12.73-1.72-2.17-.67-4.28-1.6-6.42-2.37-.95-.35-1.93-.6-3-.93.63-1.13,1.13-2,1.62-2.9l-.26-.26C305.67,130.31,303.65,132.24,301.73,134.33Zm.48-43.1-.36-.38a11.56,11.56,0,0,0-1.68,1.33c-.51.58-.83,1.36-1.3,2-1.46,1.89-1.46,6-.09,8,1.82,2.67,4.44,3.42,7.13,3.81s4.78-1.31,6.74-2.76a17.75,17.75,0,0,0,4.54-5.47c1.05-1.84,2.08-4,1.56-6.44-1.73-.06-2.47.5-3,2-.9,2.8-2.78,4.84-4.67,6.79-1.66,1.7-4,1.64-6.07,2.29a3.4,3.4,0,0,1-4.08-1.08c-1.13-1.33-1.77-3.84-1-5.46.55-1.13,1.22-2.19,1.8-3.31A8.74,8.74,0,0,0,302.21,91.23ZM311.76,77l-.26-.52a5.94,5.94,0,0,0-1.69.05c-1.79.6-4.06,4.2-3.69,6a9.54,9.54,0,0,0,4.07,6.37c2.69,1.71,5.25.46,7.51-1s3.32-3.84,4.14-6.37a17,17,0,0,0,.45-4.55c0-.45-.12-1.43-1.1-1a8.91,8.91,0,0,1-1.14,5c-1.66,3.21-3.86,5.41-7.41,5.48a3.48,3.48,0,0,1-3.88-3.85A6.91,6.91,0,0,1,310,80C310.54,79,311.17,78,311.76,77Zm33.08,34.82a5.25,5.25,0,0,0-.63,1,12.06,12.06,0,0,0-.42,1.7c-.47,2.2-.5,4.29.92,6.24,2,2.78,4.79,3.21,7.6,3.08a3.35,3.35,0,0,0,2.49-2.11,23.39,23.39,0,0,0,.37-8.76c-.37-2.17-1.47-3.06-3.37-2.72.67,3.53,1.35,7.06,2.05,10.72C348.27,120.16,345.33,119.58,344.84,111.83Zm-7.06-21.3-.43,0a4.38,4.38,0,0,0-.74,1.48c-.19,2.16-1.38,3.71-2.43,5.32a2.67,2.67,0,0,1-2.35,1.31,28.17,28.17,0,0,1-7.83-.94,2.65,2.65,0,0,1-2-2.41c-.11-.65-.21-1.31-.37-1.95a4.26,4.26,0,0,0-.4-.87l-.43.1c-.08,1.5-.27,3-.22,4.48a4.07,4.07,0,0,0,3,3.74,37.42,37.42,0,0,0,6.58,1.06c1.56,0,3.51-.16,4.59-1.17a11.06,11.06,0,0,0,3.58-8A8.66,8.66,0,0,0,337.78,90.53Zm-43.49,32.68a8.43,8.43,0,0,0-1.77.56c-1.74,1.08-1.9,3.11-2.16,5a4.23,4.23,0,0,0,.43,2.35,5.74,5.74,0,0,0,4.57,3.13,12.27,12.27,0,0,0,3.77-.69,3.84,3.84,0,0,0,3.09-2.43c.42-1.15.88-2.29,1.2-3.48a7.31,7.31,0,0,0-.42-5.52,1.43,1.43,0,0,0-2.07-.74c-.8.61-.15,1.25.11,1.84.46,1.08,1,2.12.41,3.33-.36.79-.62,1.64-1,2.39a2.7,2.7,0,0,1-1,1.16c-1.17.59-2.53.82-3.56,1.59a1.81,1.81,0,0,1-2.16.15,3,3,0,0,1-1.09-2.13,16.4,16.4,0,0,1,.84-3.59C293.67,125.28,293.93,124.44,294.29,123.21ZM325.15,77l-.15-.2a6.39,6.39,0,0,0-.57,1.14c-.28,1.17-.52,2.36-.73,3.55a3.58,3.58,0,0,0-.11,1.58c1.27,4.27,3.37,6.49,7.75,6.44,2.61,0,5.08-.45,5.9-3.85a.23.23,0,0,1,.07-.1c2.23-2.59,2.1-5.68,1.26-8.87a1.53,1.53,0,0,0-1.11-.82,1.28,1.28,0,0,0-1.09.68,6.26,6.26,0,0,0,0,2.69c.76,2.6-.21,4.89-.53,7.31a17.41,17.41,0,0,0-3,0,7.91,7.91,0,0,1-4.83-.47,5.37,5.37,0,0,1-3-4A28.06,28.06,0,0,1,325.15,77Zm-5.24-12.1c-2.44.07-2.94.58-3.46,2.88s1.13,6,3.14,6.35a7.11,7.11,0,0,0,6.5-2.34,7.48,7.48,0,0,0,1.69-6,10.37,10.37,0,0,0-.84-2.31l-.39.13a2.84,2.84,0,0,0-.26.91A6.54,6.54,0,0,1,325,69a7.86,7.86,0,0,1-5.32,3.07,1.05,1.05,0,0,1-.8-.66c-.19-1.3-.76-2.61.14-3.91A11.08,11.08,0,0,0,319.91,64.92Zm29.3,34.3a5.17,5.17,0,0,1-4.71-1.45c-1.75-1.52-3.72-3-3.51-5.92a1.74,1.74,0,0,0-.22-.61c-.19.16-.49.29-.54.5a7,7,0,0,0,.11,4.45,12.26,12.26,0,0,0,4.49,5.52,3.93,3.93,0,0,0,4.86-.25,3.11,3.11,0,0,0,.83-2.27,13.14,13.14,0,0,0-.78-3.7c-.37-1.09-1.38-.86-2-.51s-.35,1.15.06,1.79S348.71,98.34,349.21,99.22ZM345.9,84.15a14.84,14.84,0,0,1-1.83-.77c-.38-.23-.89-.56-1-1-.47-1.77-1.34-3.46-1.16-5.4a3.58,3.58,0,0,0-.22-1.09,5.36,5.36,0,0,0-.79.79,1.58,1.58,0,0,0-.24.83,28.41,28.41,0,0,0,0,4.23c.22,1.64.61,3.26,2.16,4.2,1.06.65,3.54.24,4-.9a11.42,11.42,0,0,0,0-9c-.26-.62-.49-.95-1.16-.67s-.61.73-.47,1.33a23.92,23.92,0,0,1,.73,3.52A34.24,34.24,0,0,1,345.9,84.15Zm-52.72,31.68c0,.26,0,.53.08.78.26,1.21.68,2.48,1.79,2.85a22.14,22.14,0,0,0,4,.62c1.72.24,3.92-1.67,4.14-3.63a1.42,1.42,0,0,0-.14-.89.74.74,0,0,0-.74-.06,7.69,7.69,0,0,0-1.49,1.07c-1.23,1.16-2.47,2-4.27,1.47-.86-.27-1.38-.45-1.19-1.55a21.19,21.19,0,0,1,.43-2.57c.33-1,.89-2,1.27-3s.08-1.55-.88-1.3a3.08,3.08,0,0,0-1.83,1.21A7.66,7.66,0,0,0,293.18,115.83Zm59.38,12.68c-.84.44-1.47.83-2.15,1.11a10.11,10.11,0,0,1-2.84.95,2.89,2.89,0,0,1-2.75-4.23,7.88,7.88,0,0,0,.28-.93c-.63.18-1.26.13-1.46.45-.71,1-1.68,2.16-1.26,3.63.9,3.22,3.4,4.94,6.4,4.26S352.73,131.74,352.56,128.51Zm-11.9-56.83-.16-.43a2.05,2.05,0,0,0-.53-.13c-1.85-.09-3.72-.05-5.56-.26-2.69-.29-3.29-.93-3.85-3.81-.2-1-.23-2-.34-3l-.44,0c-.12.6-.26,1.19-.35,1.8-.42,2.76.51,5.67,2.25,6.41a9.32,9.32,0,0,0,5.84.92A17.72,17.72,0,0,0,340.66,71.68Zm-18.3,77.87c-1.33.62-2.66,1.24-4,1.9-.18.09-.26.43-.39.66a2.37,2.37,0,0,0,.79,0,14.31,14.31,0,0,1,1.92-.7,10.85,10.85,0,0,1,8.18,1.89c.52.38,1.16,1,1.68.13s.14-1.49-.6-2C327.64,149.7,325.08,149.57,322.36,149.55Z" style="fill:#f2f0e7"/><path d="M236.85,156.77c4.58-1.29,9-2.8,13.46-3.7a65.36,65.36,0,0,1,11.19-1c4.09-.07,8.19.25,12.28.39,3.25.1,6.5.21,9.75.25a8.86,8.86,0,0,0,1.94-.42l.07-.42a26.55,26.55,0,0,0-3.33-1.58c-1.91-.61-3.88-1-5.81-1.54a1.08,1.08,0,0,1-.66-.69c-.59-5.33-1.31-10.65-1.64-16-.29-4.63-.13-9.28-.15-13.92a5.9,5.9,0,0,1,.39-2.05c.73,2.24,1.41,4.51,2.21,6.73a32.51,32.51,0,0,0,1.9,4.49c1.14,2.12,2.42,4.13,3.67,6.17a21.69,21.69,0,0,0,7,6.94c5.58,3.57,11.36,6.73,16.52,11.11a155.57,155.57,0,0,1,13.2,12.13c.67.72,1.17,1.65,1.82,2.41a1.14,1.14,0,0,1-.09,1.68,48.9,48.9,0,0,0-8,13.3,34.19,34.19,0,0,0-2.82,9.56c-.28,2.58-.84,5.13-1,7.73a29.52,29.52,0,0,0,4.55,18.17,18.11,18.11,0,0,1-2-1,67.36,67.36,0,0,1-9.58-7.4,56.93,56.93,0,0,1-8.1-10.12,82.35,82.35,0,0,1-5.27-9.81,134.4,134.4,0,0,1-6.17-15.64c-.79-2.47-1.49-5-2.24-7.52l4.4-1,0-.47a35,35,0,0,0-3.4-1.05,56.19,56.19,0,0,0-15.47-.75c-3.3.27-6.63.31-9.89.84-4,.66-8.12,1-11.89,2.79-1.18.57-2.31,1.24-3.46,1.86l-1.08.56Z" style="fill:#f2f0e7"/><path d="M341.35,232.79l-8.32-.94-.08.51c1.82,1.33,4.05,1.21,6.15,2-1.91,1-4.19.83-5.74,2.86a5.29,5.29,0,0,0,3.85.41c2-.32,4-1,6-1.2a13.85,13.85,0,0,1,3.92.78c2.59.58,5.19,1.16,7.78,1.79a32.36,32.36,0,0,1,10.88,5,36.89,36.89,0,0,1,4.37,3.89c-15.78-.45-31.41-3.11-47.07-3.77q-.06-9.66-.12-19.89c7,1.43,13-1.32,18.51-6.3Q341.41,225.7,341.35,232.79Z" style="fill:#f2f0e7"/><path d="M319.63,223.63c-.38,7-.76,13.9-1.14,20.92a204.58,204.58,0,0,0-44.28-.66c3.77-4.84,8.25-7.5,13.86-8.1,3-.33,5.81.74,8.68,1.4,2.1.49,4.21.82,6.31,1.27.5.11,1,.53,1.46.63,1.46.28,2.93.49,4.4.64.2,0,.57-.42.59-.68a1.1,1.1,0,0,0-.5-.8c-.91-.43-1.86-.75-2.79-1.14-.44-.18-.86-.43-1.55-.78l6.47-.06a1.77,1.77,0,0,0,.81-.12,8,8,0,0,0,.93-.83c-.29-.31-.55-.83-.87-.89-2.35-.47-4.7-.94-7.07-1.19-.83-.09-1-.33-1.05-1.14-.05-2.71-.08-5.43-.18-8.14s-.27-5.48-.43-8.4C308.58,219.05,313.84,222.28,319.63,223.63Z" style="fill:#f2f0e7"/><path d="M201.86,165.47c1.23-.25,2.45-.6,3.69-.73,3.28-.34,6.59-.42,9.84-.91,3.91-.59,7.77-1.49,11.05-4.26l1.69,4.06.52,0c1.7-2.56,1.88-5.51,1.28-8.66,1.88-1,2.9-.67,3.59,1.52,1.55,4.92,2.89,9.92,2.32,15.18a19.13,19.13,0,0,1-1,3.42c-.25.83-.77.82-1.12.17-.57-1.06-.94-2.25-1.49-3.33A5.18,5.18,0,0,0,231,170.3c-.23-.18-1,0-1.1.24a5.72,5.72,0,0,0-.14,2.07c0,.32.36.62.57.95-3,.21-4.89,2.56-7,4.38-2.42,2.08-5,3.84-8.18,3.52-1.39-.14-2.94-.45-3.64-2.58,1.74-.69,3.49-1.36,5.22-2.07,2.14-.89,4-2.12,4.69-4.78.41-1.54-.15-3.31-1.55-3.76a10,10,0,0,0-3.72-.42c-1.93.14-3.84.71-5.77.78a12.17,12.17,0,0,1-8.47-2.63Z" style="fill:#f2f0e7"/><path d="M393,119.53c-1,.61-2,1.21-3,1.73-.75.39-.69.82-.21,1.45a13.17,13.17,0,0,1,.81,1.38c-.63.25-1.32.82-1.89.69a24.19,24.19,0,0,1-9.1-3.54,1.92,1.92,0,0,1,2.84-1.24,20.65,20.65,0,0,0,3.1,1.15c.25.07.6-.34.9-.52-.19-.26-.34-.65-.58-.77-1.1-.52-2.24-1-3.35-1.43-.26-.11-.7-.22-.73-.39-.28-1.74-1.69-2.48-2.59-3.65-1.87-2.43-1.6-4.82.82-6.41a7.8,7.8,0,0,1,5.6-1.26c.5.08,1.32.5,1.36.83a2.46,2.46,0,0,1-.68,1.67,2.82,2.82,0,0,1-3.16.48c-.33-.11-1,0-1.07.2a1.65,1.65,0,0,0,.12,1.28c.74,1.16,1.15,1.31,2.6,1.32.43.8.8,1.58,1.25,2.29.15.24.55.47.76.4s.41-.5.42-.78c0-.76-.08-1.53-.13-2.45,1.48-.83,1.76-2.48,2.06-4.39a20.07,20.07,0,0,1,2.11-5.63A33,33,0,0,1,394,97.65a4.25,4.25,0,0,1,1.08-.83l.36.18a13.92,13.92,0,0,1-.43,3c-.93,2.56-2,5-3,7.58a11.57,11.57,0,0,1-.54,1.78,15.84,15.84,0,0,1-1.68,2c-.82.88-2,1.71-1.62,3.15a4.55,4.55,0,0,0,2.86,3.25C391.73,118,392.29,118.89,393,119.53Z" style="fill:#f2f0e7"/><path d="M386.9,104.36l-5.64.26c.09-2.37-.92-5.08.44-7.54a2.63,2.63,0,0,1,1.67-1.2c.67-.1,1,.62,1.21,1.42.62,2.09,1.45,4.1,2.18,6.15A4.21,4.21,0,0,1,386.9,104.36Z" style="fill:#f2f0e7"/><path d="M215.18,170.72c-2,1.3-3.93,2.63-5.93,3.88-1.18.74-2.39,1.7-3.59.69,2-1.15,4.13-2.39,6.28-3.52a28.37,28.37,0,0,1,3.25-1.26Z" style="fill:#f2f0e7"/><path d="M390.85,114c.61-2.13,1.77-3.46,3-3.46C393.43,112.63,392,114.33,390.85,114Z" style="fill:#f2f0e7"/><path d="M206.41,171.14a3.9,3.9,0,0,1-3.74,0,2.26,2.26,0,0,1-.48-.45,2.69,2.69,0,0,1,.55-.47,1,1,0,0,1,.64,0C204.29,170.46,205.19,170.76,206.41,171.14Z" style="fill:#f2f0e7"/><path d="M215.72,174.1c1.1-1.92,2.2-3,2.92-2.76C218.29,173,217.1,173.61,215.72,174.1Z" style="fill:#f2f0e7"/><path d="M395.94,111.85c.49,1.14-.83,3.89-2.39,4.82C394.3,115.17,395.14,113.47,395.94,111.85Z" style="fill:#f2f0e7"/><path d="M323.88,109.4c-5.94-.5-7.61,2.41-7.69,5.76-.1,3.93,2.16,8.44,5.07,8.68-1.47,2.08-5.49,4-7.89,3.11-3-1-4.81-4.64-4.95-8a25.59,25.59,0,0,1,.78-7,7.42,7.42,0,0,1,2.61-4.39c1-.76,1.52-2.11,3-2.26a11,11,0,0,1,7.26,1.39,11.84,11.84,0,0,1,2.1,2.33Z" style="fill:#f2f0e7"/><path d="M326.06,107.49c3.9-3.36,10.92-1.86,13,2a5.28,5.28,0,0,0-5.3,1.87,5.78,5.78,0,0,0-1.41,4.56,17,17,0,0,0,1.75,5,4.35,4.35,0,0,0,4.13,2.27c-2.61,4.14-7.23,5-10.33,2.8a19.55,19.55,0,0,1-2.89-3c-.08-.1,0-.45.08-.64,1.17-2.9,2.2-5.85,1.9-9.13C326.79,111.37,326.39,109.57,326.06,107.49Z" style="fill:#f2f0e7"/><path d="M331.86,131.61c-.93,1.55-2.35,1.71-3.59,1.95a16.71,16.71,0,0,1-8.31-.64,3.43,3.43,0,0,1-2.54-2.13C322.23,128.33,327,129.29,331.86,131.61Z" style="fill:#f2f0e7"/><path d="M330.8,140.67c-4.17,3.53-9.67,2.34-14.23-1.1A36.82,36.82,0,0,0,330.8,140.67Z" style="fill:#f2f0e7"/></g></g></g></svg>