<svg xmlns="http://www.w3.org/2000/svg" viewBox="0 0 238.87 93.72"><g id="Layer_2" data-name="Layer 2"><g id="Layer_1-2" data-name="Layer 1"><path d="M41.77,76V8.65H31.31L25.7,56.26l-6-47.61H13a3.82,3.82,0,0,0-3.82,3.82V71.36A4.63,4.63,0,0,0,13.77,76h2V25.39L22.62,76h6.07l6.44-50.61V76Z" style="fill:#00b982"/><path d="M65,76V29.31c0-5.61-3.41-10.09-9.7-10.09s-9.5,4.48-9.5,10.09V44.9h6.06V41.7a3.43,3.43,0,0,1,3.44-3.37,3.35,3.35,0,0,1,3.45,3.4v1.15l-8.43,4.23a8,8,0,0,0-4.72,7.68V69.61c0,3.93,1.69,7.36,5.93,7.36s5.94-3.43,5.94-7.36V64.48a1.2,1.2,0,0,1,.37-.89,1.23,1.23,0,0,1,.91-.35V76ZM58.74,53.89a3.24,3.24,0,0,1-3.24,3.39,3.37,3.37,0,0,1-2.44-1,3.34,3.34,0,0,1-1-2.42,4.11,4.11,0,0,1,2.1-3.6L58.74,48Z" style="fill:#00b982"/><rect x="69.01" y="20.14" width="6.26" height="55.88" style="fill:#00b982"/><polygon points="76.93 13.4 66.58 16.33 67.35 18.52 77.7 15.59 76.93 13.4" style="fill:#00b982"/><polygon points="78.8 76.03 96.46 76.03 96.46 55.04 85.34 55.04 96.3 39.41 96.3 20.15 79.21 20.15 79.21 41.14 89.63 41.14 78.8 56.53 78.8 76.03" style="fill:#00b982"/><path d="M135.24,76V18.94c0-5.88-3.59-10.19-9.68-10.28H115V76h6.65V44.14h7V76ZM121.63,38.3V27.44h3.92a3,3,0,0,1,3,3.2V38.3Z" style="fill:#00b982"/><path d="M171.68,76V26.55c0-4-1.71-7.36-5.89-7.36s-5.89,3.4-5.89,7.36v5.67a1.62,1.62,0,0,1-.36,1,1.17,1.17,0,0,1-.91.4v-7c0-4-1.71-7.36-5.89-7.36s-5.89,3.4-5.89,7.36v5.67a1.61,1.61,0,0,1-.35,1,1.21,1.21,0,0,1-.92.4V20.13h-6.26V76h6.26V42.89c0-2.26,1.09-4.17,3.4-4.17s3.39,1.91,3.39,4.17V76h6.26V42.62c.08-2.14,1.18-3.9,3.39-3.9s3.4,1.91,3.4,4.17V76Z" style="fill:#00b982"/><rect x="175.69" y="9.42" width="6.26" height="8.98" style="fill:#00b982"/><rect x="175.69" y="20.13" width="6.26" height="55.88" style="fill:#00b982"/><path d="M229.83,66.85V29.28c0-5.61-3.41-10.09-9.7-10.09s-9.7,4.48-9.7,10.09V66.85c0,5.62,3.41,10.1,9.7,10.1S229.83,72.47,229.83,66.85ZM216.89,55.23V40.91a3.24,3.24,0,1,1,6.48,0V55.23a3.24,3.24,0,1,1-6.48,0Z" style="fill:#00b982"/><path d="M236.35,0H0V84.94H199.92c4.89,0,6.75-2.52,6.75-6.7V20.13h-6.25V33.6a1.29,1.29,0,0,1-1.28-1.38V26.55c0-4.21-2.14-7.36-6.58-7.36S186,22.34,186,26.55v43c0,4.21,2.14,7.36,6.57,7.36s6.58-3.15,6.58-7.36V64.46a1.21,1.21,0,0,1,.37-.9,1.23,1.23,0,0,1,.91-.35v15a1.68,1.68,0,0,1-1.68,1.67H10.55a5.49,5.49,0,0,1-5.5-5.49V9.83A4.78,4.78,0,0,1,9.83,5.05H225.1a8.71,8.71,0,0,1,8.72,8.72v66.7a8.2,8.2,0,0,1-8.2,8.2H0v5H238.87V0ZM199.14,56.36a4,4,0,0,1-6-.7,4.39,4.39,0,0,1-.69-2.41V42.89a4.39,4.39,0,0,1,.69-2.41,4,4,0,0,1,6-.7,4.31,4.31,0,0,1,1.28,3.11V53.25A4.31,4.31,0,0,1,199.14,56.36Z" style="fill:#00b982"/><path d="M217.63,81.64v3.63h-1.21V81.64h-1.35V80.55H219v1.09ZM224,85.27V82.4l-1.15,2.87H222l-1.16-2.83v2.83h-1.18V80.55h1.66l1.15,2.77,1.11-2.77h1.62v4.72Z" style="fill:#00b982"/></g></g></svg>