<svg xmlns="http://www.w3.org/2000/svg" viewBox="0 0 187.58 29.97"><g id="Layer_2" data-name="Layer 2"><g id="Layer_1-2" data-name="Layer 1"><path d="M17.43,3.77A2.55,2.55,0,0,1,17,4.6l-1.24,2c-.55.86-1.21,2-2,3.28s-1.58,2.81-2.41,4.42c-.94,1.86-1.63,3.32-2,4.39a7.69,7.69,0,0,0-.63,2.74,2,2,0,0,0,1,1.61A19.2,19.2,0,0,0,12,20.82,34.05,34.05,0,0,0,14.19,18q1.11-1.55,2.55-3.92t2.58-4.36a3,3,0,0,0-.12-.32.83.83,0,0,1-.06-.28,3.63,3.63,0,0,1,.35-1.6,8.09,8.09,0,0,1,.86-1.46c.35-.47.87-1.14,1.56-2a.81.81,0,0,1,.67-.35q.66,0,.66.84a8.62,8.62,0,0,1-.68,2.63,35.08,35.08,0,0,1-2,4.22c-.88,1.62-2,3.42-3.31,5.42s-2.81,4.09-4.47,6.26-2.9,3.3-3.63,3.3a2.23,2.23,0,0,1-1.4-.68,5.82,5.82,0,0,1-1.35-1.87,5.75,5.75,0,0,1-.57-2.53,8.55,8.55,0,0,1,.34-2.06,26.77,26.77,0,0,1,1.06-3,37.59,37.59,0,0,1,1.63-3.47c.63-1.2,1.19-2.2,1.67-3s1-1.67,1.63-2.63a10.58,10.58,0,0,0,.91-1.58q0-.27-.36-.27A5.87,5.87,0,0,0,9.87,6.36Q8.11,7.44,5.29,9.62c-.72.56-1.17.93-1.36,1.09s-.28.3-.28.41.11.22.34.22.43,0,1-.11a11.32,11.32,0,0,1,1.33-.11c.54,0,.82.1.82.29s-.12.3-.34.4a5.47,5.47,0,0,1-.93.29l-1.61.4a17,17,0,0,0-2.33.84,7.19,7.19,0,0,1-1.41.55.4.4,0,0,1-.43-.26A3.16,3.16,0,0,1,0,12.8a7.81,7.81,0,0,1,.86-4A10.55,10.55,0,0,1,3.92,5.85,41.11,41.11,0,0,1,8.73,2.94a28.43,28.43,0,0,1,4-1.69A9,9,0,0,1,15.15.71a2,2,0,0,1,1.52,1A3.35,3.35,0,0,1,17.43,3.77Z" style="fill:#00b982"/><path d="M22.11,15.37a22,22,0,0,1,5.38-3.74,10.54,10.54,0,0,1,4-1.22,1,1,0,0,1,.71.32,2.42,2.42,0,0,1,.52.74,1.84,1.84,0,0,1,.19.62.53.53,0,0,1-.26.48,5.06,5.06,0,0,1-.89.37q.12.3.33.75c.13.3.23.55.31.74a1.46,1.46,0,0,1,.11.5,3.9,3.9,0,0,1-.89,1.63c-.59.8-1,1.38-1.24,1.76a2.62,2.62,0,0,0-.35,1.38c0,.9.41,1.35,1.24,1.35s2.18-.79,4-2.38v1.11q-4.62,5.12-6.6,5.12a1.12,1.12,0,0,1-1-.47,2.53,2.53,0,0,1-.3-1.37,12.86,12.86,0,0,1,1-4.18q-2.67,3-4,4.21a3.54,3.54,0,0,1-2.13,1.24c-.27,0-.6-.23-1-.69a6.73,6.73,0,0,1-1.07-1.79,5.85,5.85,0,0,1-.46-2.29A5.27,5.27,0,0,1,20,18.13,3.45,3.45,0,0,1,20.6,17,15.27,15.27,0,0,1,22.11,15.37Zm8.73-2A39.47,39.47,0,0,0,24.09,17c-1.35,1-2,2.05-2,3.12a2.07,2.07,0,0,0,.2,1,.61.61,0,0,0,.55.37,2,2,0,0,0,.71-.25A14.46,14.46,0,0,0,27,18.29Q28.62,16.47,30.84,13.36Z" style="fill:#00b982"/><path d="M47.41,15.33q-3.21,3.57-3.21,5c0,.52.21.78.64.78a2.81,2.81,0,0,0,1.38-.56c.56-.37,1.44-1,2.65-2v1.25c-1.73,1.71-3,2.93-4,3.69a4,4,0,0,1-2.26,1.13c-1,0-1.49-.66-1.49-2a3.78,3.78,0,0,1,.18-1.15,7.7,7.7,0,0,1,.5-1.18c.22-.4.54-1,1-1.75S43.74,17,44.31,16a12.05,12.05,0,0,0-2.61,2.1A21.74,21.74,0,0,0,40,20c-.47.59-1,1.24-1.52,2a16,16,0,0,1-1.18,1.46,1.14,1.14,0,0,1-.76.37c-.39,0-.75-.41-1.08-1.22a7.76,7.76,0,0,1-.49-2.85,4.31,4.31,0,0,1,.23-1.56,10.43,10.43,0,0,1,.9-1.61,17.53,17.53,0,0,1,2.17-2.83A2.59,2.59,0,0,1,40,12.8a1.85,1.85,0,0,1,.94.2.66.66,0,0,1,.36.62.82.82,0,0,1-.11.38,3.27,3.27,0,0,1-.25.36c-.09.11-.28.33-.57.64q-2.88,3.2-2.88,4.14c0,.35.11.53.34.53s.43-.24.85-.7l1.62-1.84a29,29,0,0,1,2.35-2.38,25.17,25.17,0,0,1,3.09-2.39,3.08,3.08,0,0,1,1.61-.68q.28,0,.57.81a4.76,4.76,0,0,1,.28,1.62C48.19,14.38,47.93,14.78,47.41,15.33Z" style="fill:#00b982"/><path d="M59.73,18.67v1.22q-1.95,1.91-3.18,3a13.66,13.66,0,0,1-2.3,1.64,4.29,4.29,0,0,1-2.08.58,2.62,2.62,0,0,1-1.84-.79A5.39,5.39,0,0,1,49,22.21a7.93,7.93,0,0,1-.47-2.72,4.34,4.34,0,0,1,.55-2.21,12.68,12.68,0,0,1,2.11-2.5A20.64,20.64,0,0,1,54.66,12a5.22,5.22,0,0,1,2.5-1,1.52,1.52,0,0,1,1.11.46,1.54,1.54,0,0,1,.46,1.15,3.85,3.85,0,0,1-.6,1.66,9.17,9.17,0,0,1-1.35,1.86c-.5.53-.89.8-1.19.8s-.47-.17-.47-.51l0-.28c0-.08,0-.17,0-.25s-.06-.23-.16-.25a.49.49,0,0,0-.37.14c-1.22.85-2.05,1.45-2.5,1.79a5.94,5.94,0,0,0-1.07,1.05,1.88,1.88,0,0,0-.39,1.11,2.31,2.31,0,0,0,.7,1.75,2.47,2.47,0,0,0,1.8.68,6,6,0,0,0,2.76-.89A28.65,28.65,0,0,0,59.73,18.67Z" style="fill:#00b982"/><path d="M71.38,18.59v1.22a9.62,9.62,0,0,1-1.93,1.46,4.22,4.22,0,0,1-2.1.29Q65,24.37,63.18,24.37a2.89,2.89,0,0,1-1.86-.67A4.64,4.64,0,0,1,60,21.85a6.38,6.38,0,0,1-.5-2.6,5.45,5.45,0,0,1,.77-2.59,11.67,11.67,0,0,1,2-2.65,11.4,11.4,0,0,1,2.63-2,5.58,5.58,0,0,1,2.61-.75,2.84,2.84,0,0,1,1.35.26.83.83,0,0,1,.49.74,1.38,1.38,0,0,1-.42.84,1.5,1.5,0,0,1,1,.48,2.13,2.13,0,0,1,.25,1.23A8,8,0,0,1,69.71,17a11.16,11.16,0,0,1-1.12,2.49l.33.33h.27a1.24,1.24,0,0,0,.61-.16,4.53,4.53,0,0,0,.54-.32ZM67.62,13.8c-1,.61-1.87,1.16-2.58,1.65a12.65,12.65,0,0,0-1.83,1.49,4.11,4.11,0,0,0-1,1.53c-.3,1.36-.45,2.09-.45,2.2,0,.8.55,1.2,1.67,1.2a5.79,5.79,0,0,0,2.63-1.35,4.7,4.7,0,0,1-.31-1.64,6.26,6.26,0,0,1,.47-2.34A19.86,19.86,0,0,1,67.62,13.8Z" style="fill:#00b982"/><path d="M79.93,17.39q-2.64,3.49-4,5t-2.25,1.47a1.81,1.81,0,0,1-1.28-.57,3.72,3.72,0,0,1-.9-1.55,6.78,6.78,0,0,1-.32-2.09,5.85,5.85,0,0,1,.14-1.31A5,5,0,0,1,71.82,17a12.05,12.05,0,0,1,1-1.52c.42-.54.93-1.16,1.54-1.86l.92-1.07A2.08,2.08,0,0,1,76,12a3,3,0,0,1,1.16-.16,3.77,3.77,0,0,1,1.11.16c.35.1.53.2.53.31a2.92,2.92,0,0,1-.54,1.19,14.08,14.08,0,0,1-1.73,2.09A24.81,24.81,0,0,1,73.79,18a5.59,5.59,0,0,0-.35,1.64q0,.78.6.78a1.55,1.55,0,0,0,.73-.37c.34-.25.91-.73,1.72-1.44l2.18-1.89a13,13,0,0,0,1.65-1.84C81,14,81.45,13.43,81.84,13c.9-.94,1.51-1.56,1.84-1.85a1.51,1.51,0,0,1,.95-.42.62.62,0,0,1,.59.27,2.46,2.46,0,0,1,.16,1.11,2.52,2.52,0,0,1-.07.62,2.68,2.68,0,0,1-.31.61c-.15.25-.45.71-.92,1.38s-1,1.46-1.64,2.37a9.75,9.75,0,0,0-.89,1.59A3.73,3.73,0,0,0,81.17,20c0,.63.25.94.74.94a2.79,2.79,0,0,0,1.44-.51,30.63,30.63,0,0,0,2.52-1.84v1.22c-1.42,1.32-2.47,2.27-3.15,2.87A13.27,13.27,0,0,1,81,24a2.7,2.7,0,0,1-1.42.46c-1,0-1.53-.61-1.53-1.82a5.6,5.6,0,0,1,.45-1.87C78.76,20,79.25,18.87,79.93,17.39Z" style="fill:#00b982"/><path d="M88.09,18.67l-.32,1.53a2.57,2.57,0,0,0-.08.65c0,.66.28,1,.82,1s1.8-1,3.81-3.07A5.94,5.94,0,0,1,93.21,16a14.76,14.76,0,0,1,1.91-2.72c.7-.77,1.22-1.16,1.56-1.16.53,0,.8.35.8,1.06a4.91,4.91,0,0,1-.31,1.55,11.78,11.78,0,0,1-.91,2A18.06,18.06,0,0,1,94.78,19c.31.54.62.82.93.82a1.79,1.79,0,0,0,.89-.29,10,10,0,0,0,1.21-.86v1.22a9.65,9.65,0,0,1-1.61,1.09,3.42,3.42,0,0,1-1.53.3,3.65,3.65,0,0,1-1.31-.5,38.61,38.61,0,0,1-3,3,3.35,3.35,0,0,1-1.9,1,2.52,2.52,0,0,1-2.14-1.5,6.42,6.42,0,0,1-.89-3.31c0-1.62.92-3.55,2.74-5.81a8.88,8.88,0,0,1,1.32-1.4,1.83,1.83,0,0,1,1.14-.37,2.64,2.64,0,0,1,1,.2c.33.13.49.29.49.47a5.54,5.54,0,0,1-1.22,2.67A14.77,14.77,0,0,1,88.09,18.67Z" style="fill:#00b982"/><path d="M100.69,19.29v.45a2.47,2.47,0,0,0,.53,1.68,1.75,1.75,0,0,0,1.38.6,4.55,4.55,0,0,0,1.85-.42,10.15,10.15,0,0,0,1.91-1.11q.94-.69,2.31-1.86v1.11a22.66,22.66,0,0,1-3.86,3.8,6.16,6.16,0,0,1-3.66,1.32,3.08,3.08,0,0,1-2.58-1.25,5.63,5.63,0,0,1-.94-3.45,6.79,6.79,0,0,1,.89-3.47,13.18,13.18,0,0,1,2.92-3.29,11.2,11.2,0,0,1,2.75-1.79,6.16,6.16,0,0,1,2.44-.6,2.16,2.16,0,0,1,1.36.39,1.42,1.42,0,0,1,.5,1.18,3.76,3.76,0,0,1-.86,2.29A10.09,10.09,0,0,1,105,17.13,28.1,28.1,0,0,1,100.69,19.29Zm.18-1.19a10,10,0,0,0,2.81-1.59,7.89,7.89,0,0,0,1.72-1.81,2.89,2.89,0,0,0,.56-1.27q0-.42-.39-.42a2.63,2.63,0,0,0-1.06.42,9.21,9.21,0,0,0-1.5,1.1,8.33,8.33,0,0,0-1.35,1.58A5,5,0,0,0,100.87,18.1Z" style="fill:#00b982"/><path d="M108.49,20V18.85a17.47,17.47,0,0,0,1.5-2,2,2,0,0,1-.85-.49,1.27,1.27,0,0,1-.27-.88,3.8,3.8,0,0,1,.55-1.66A9.23,9.23,0,0,1,110.77,12a4.08,4.08,0,0,1,1.46-1.13,1,1,0,0,1,.49-.13.32.32,0,0,1,.36.35,3.37,3.37,0,0,1-.56,1.25,45.21,45.21,0,0,1,4.74-.58,1.55,1.55,0,0,1,.53.07,1.36,1.36,0,0,1,.51.77,3.87,3.87,0,0,1,.2,1.2,1.38,1.38,0,0,1-.34.83,14.74,14.74,0,0,1-1.16,1.3,11.41,11.41,0,0,0-1.62,2.26,4.47,4.47,0,0,0-.66,1.85c0,.57.36.85,1.06.85s2-.75,3.87-2.26v1.22c-1,1.06-1.84,1.89-2.5,2.5a13.5,13.5,0,0,1-1.82,1.45,2.86,2.86,0,0,1-1.5.54,1.53,1.53,0,0,1-1.27-.7,3.45,3.45,0,0,1-.51-2,4.82,4.82,0,0,1,.4-1.78,12.11,12.11,0,0,1,1.17-2.18,27.73,27.73,0,0,1,1.74-2.34c-.34.07-.72.15-1.15.22l-1.34.25-1.1.2A13,13,0,0,1,108.49,20Z" style="fill:#00b982"/><path d="M122.64,24.83a5.6,5.6,0,0,1-.76-.33c-.12-.07-.17-.23-.17-.46a2.52,2.52,0,0,1,.57-1.3,7.37,7.37,0,0,1,1.3-1.42,2.09,2.09,0,0,1,1.19-.61c.45,0,.67.27.67.82a4.72,4.72,0,0,1-1.1,2.47,8.46,8.46,0,0,1-2,2.12c-.4.27-.6.3-.6.11a.42.42,0,0,1,.1-.25c.07-.08.19-.23.37-.47A5.39,5.39,0,0,0,122.64,24.83Z" style="fill:#00b982"/><path d="M152.46,12.05l-.93,1.09c1.08.1,2,.23,2.89.39s1.64.35,2.37.55a18.38,18.38,0,0,1,1.9.63q2.88,1.2,2.88,3.35a3.71,3.71,0,0,1-1.2,2.57,11.82,11.82,0,0,1-3.13,2.25,21,21,0,0,1-4,1.54,14.18,14.18,0,0,1-3.7.55,7.75,7.75,0,0,1-4.32-1,3.2,3.2,0,0,1-1.54-2.81,6.16,6.16,0,0,1,.94-2.92A32.79,32.79,0,0,1,147.61,14a4.85,4.85,0,0,1-2.12-.45,1.17,1.17,0,0,1-.62-1.05.83.83,0,0,1,.24-.64,1.54,1.54,0,0,1,.64-.32c.27-.06.78-.14,1.54-.24l2.92-.37a24.23,24.23,0,0,1,3.57-3.67,6.48,6.48,0,0,1,3.38-1.41l.32,0c.11,0,.17,0,.17.09a1.79,1.79,0,0,1-.41.58c-.27.32-.72.82-1.33,1.52l-2.18,2.46a46.46,46.46,0,0,0,5.61-1,10.37,10.37,0,0,0,3.29-1.41,2.31,2.31,0,0,0,1.11-1.83,1.83,1.83,0,0,0-1.19-1.76,9,9,0,0,0-3.62-.55,20.41,20.41,0,0,0-3.09.27c-1.16.18-2.21.39-3.16.62a25.83,25.83,0,0,0-2.51.74c-.74.26-1.1.45-1.1.57s0,.08.11.11c.59.22.89.41.89.55s-.91.57-2.74,1.12a15.65,15.65,0,0,1-3.68.83.59.59,0,0,1-.67-.67,6.73,6.73,0,0,1,1.47-2.89,7.91,7.91,0,0,1,2.67-2.67,14.2,14.2,0,0,1,1.95-.64q1.53-.44,3.36-.84c1.22-.27,2.46-.49,3.73-.67a22.73,22.73,0,0,1,3.35-.28,9,9,0,0,1,5.18,1.23,3.68,3.68,0,0,1,1.73,3.09,4.33,4.33,0,0,1-.79,2.43A8.08,8.08,0,0,1,163.16,9a17.94,17.94,0,0,1-4.37,1.83A38.86,38.86,0,0,1,152.46,12.05Zm-1.94,2.35-1.68,2a10.45,10.45,0,0,0-1.06,1.4,2.14,2.14,0,0,0-.32,1.08,1.94,1.94,0,0,0,.9,1.56,4.24,4.24,0,0,0,2.6.69,11.29,11.29,0,0,0,3.35-.56,10,10,0,0,0,3-1.45,2.42,2.42,0,0,0,1.21-1.8,1.49,1.49,0,0,0-.9-1.3,9.85,9.85,0,0,0-2.71-.9Q153.07,14.73,150.52,14.4Z" style="fill:#00b982"/><path d="M185.79,18.56v1.18a63.06,63.06,0,0,1-5.62,5.62,23.28,23.28,0,0,1-5,3.41,10.68,10.68,0,0,1-4.72,1.2,6.76,6.76,0,0,1-3.38-.79,5,5,0,0,1-2.14-2.29,8.16,8.16,0,0,1-.72-3.56,12.71,12.71,0,0,1,.52-3.43,19.11,19.11,0,0,1,1.51-3.67,33,33,0,0,1,2.41-3.82q1.44-2,3.36-4.13a38.66,38.66,0,0,1,4-3.88,27.28,27.28,0,0,1,3.54-2.56A15.26,15.26,0,0,1,182.45.46,7.22,7.22,0,0,1,184.7,0a2.69,2.69,0,0,1,1.55.44,2.76,2.76,0,0,1,1,1.27,5.09,5.09,0,0,1,.35,1.94,9.65,9.65,0,0,1-1.4,4.58,28,28,0,0,1-3.5,4.88,31.69,31.69,0,0,1-4,3.83,5.82,5.82,0,0,1-2.75,1.49,1.5,1.5,0,0,1-1-.45,1.33,1.33,0,0,1-.49-1,4.59,4.59,0,0,1,1.1-2.52,21.49,21.49,0,0,1,2.41-2.7q1.31-1.23,1.56-1.23c.08,0,.13,0,.13.11a1.78,1.78,0,0,1-.19.56,2,2,0,0,0-.2.49c0,.1,0,.15.11.15s.81-.55,1.79-1.66a26,26,0,0,0,2.71-3.65,6.74,6.74,0,0,0,1.23-3.28,1.28,1.28,0,0,0-.23-.81.84.84,0,0,0-.68-.28c-.86,0-2.15.69-3.88,2.07a39.76,39.76,0,0,0-5.32,5.27,37.15,37.15,0,0,0-4.55,6.61,13.14,13.14,0,0,0-1.82,6,6.11,6.11,0,0,0,.45,2.5,3.38,3.38,0,0,0,1.31,1.55,3.87,3.87,0,0,0,2.09.55,11.79,11.79,0,0,0,6-2.06A42.25,42.25,0,0,0,185.79,18.56Z" style="fill:#00b982"/></g></g></svg>